HIERARCHY
ROOT Hips
{
 OFFSET 0.000000 0.000000 0.000000
 CHANNELS 6 Xposition Yposition Zposition Yrotation Xrotation Zrotation
 JOINT Chest
 {
  OFFSET 0.000000 9.588913 -0.003946
  CHANNELS 3 Yrotation Xrotation Zrotation
  JOINT Chest2
  {
   OFFSET 0.000000 9.541882 0.008053
   CHANNELS 3 Yrotation Xrotation Zrotation
   JOINT Chest3
   {
    OFFSET 0.000000 9.501360 0.000000
    CHANNELS 3 Yrotation Xrotation Zrotation
    JOINT Chest4
    {
     OFFSET 0.000000 9.491660 0.000000
     CHANNELS 3 Yrotation Xrotation Zrotation
     JOINT Neck
     {
      OFFSET 0.000000 14.331917 0.000000
      CHANNELS 3 Yrotation Xrotation Zrotation
      JOINT Head
      {
       OFFSET 0.000000 8.884799 0.017034
       CHANNELS 3 Yrotation Xrotation Zrotation
       End Site
       {
        OFFSET 0.000000 16.896195 0.008993
       }
      }
     }
     JOINT RightCollar
     {
      OFFSET -2.923010 9.499495 0.000000
      CHANNELS 3 Yrotation Xrotation Zrotation
      JOINT RightShoulder
      {
       OFFSET -13.795216 0.000000 0.000000
       CHANNELS 3 Yrotation Xrotation Zrotation
       JOINT RightElbow
       {
        OFFSET -30.272209 0.000000 0.000000
        CHANNELS 3 Yrotation Xrotation Zrotation
        JOINT RightWrist
        {
         OFFSET -24.478199 0.000000 0.000000
         CHANNELS 3 Yrotation Xrotation Zrotation
         End Site
         {
          OFFSET -18.090752 0.000000 0.000000
         }
        }
       }
      }
     }
     JOINT LeftCollar
     {
      OFFSET 2.923010 9.499495 0.000000
      CHANNELS 3 Yrotation Xrotation Zrotation
      JOINT LeftShoulder
      {
       OFFSET 13.795216 0.000000 0.000000
       CHANNELS 3 Yrotation Xrotation Zrotation
       JOINT LeftElbow
       {
        OFFSET 30.272209 0.000000 0.000000
        CHANNELS 3 Yrotation Xrotation Zrotation
        JOINT LeftWrist
        {
         OFFSET 24.478199 0.000000 0.000000
         CHANNELS 3 Yrotation Xrotation Zrotation
         End Site
         {
          OFFSET 18.090752 0.000000 0.000000
         }
        }
       }
      }
     }
    }
   }
  }
 }
 JOINT RightHip
 {
  OFFSET -7.826875 0.019532 0.001973
  CHANNELS 3 Yrotation Xrotation Zrotation
  JOINT RightKnee
  {
   OFFSET 0.000000 -40.546152 -0.001885
   CHANNELS 3 Yrotation Xrotation Zrotation
   JOINT RightAnkle
   {
    OFFSET 0.000000 -39.417092 -0.003189
    CHANNELS 3 Yrotation Xrotation Zrotation
    JOINT RightToe
    {
     OFFSET 0.000000 -7.579396 17.243563
     CHANNELS 3 Yrotation Xrotation Zrotation
     End Site
     {
      OFFSET 0.000000 -1.500329 6.694466
     }
    }
   }
  }
 }
 JOINT LeftHip
 {
  OFFSET 7.826875 0.019532 0.001973
  CHANNELS 3 Yrotation Xrotation Zrotation
  JOINT LeftKnee
  {
   OFFSET 0.000000 -40.546152 -0.001885
   CHANNELS 3 Yrotation Xrotation Zrotation
   JOINT LeftAnkle
   {
    OFFSET 0.000000 -39.417092 -0.003189
    CHANNELS 3 Yrotation Xrotation Zrotation
    JOINT LeftToe
    {
     OFFSET 0.000000 -7.579396 17.243563
     CHANNELS 3 Yrotation Xrotation Zrotation
     End Site
     {
      OFFSET 0.000000 -1.500329 6.694466
     }
    }
   }
  }
 }
}
MOTION
Frames: 8
Frame Time: 0.008333
0.000000 87.345680 0.000000 0.000000 -5.767889 0.000000 0.000000 11.653876 0.000000 0.000000 -5.885988 0.000000 0.000000 -0.000000 0.000000 0.000000 -0.000000 0.000000 0.000000 12.528808 0.000000 0.000000 0.711711 0.000000 0.000000 -0.000000 0.000000 0.000000 -0.000000 0.000000 2.309063 -0.000000 0.000000 -2.309063 -0.000000 -0.000000 0.000000 -0.000000 0.000000 0.000000 0.000000 0.000000 -2.309063 0.000000 0.000000 2.309063 -0.000000 0.000000 0.000000 8.520374 0.000000 0.000000 1.905768 0.000000 -0.000000 -4.658254 0.000000 0.000000 -0.000000 0.000000 0.000000 8.520374 0.000000 0.000000 1.905768 0.000000 -0.000000 -4.658254 0.000000 0.000000 -0.000000 0.000000
11.172557 88.978947 0.674862 -177.344449 -6.603752 -0.400321 2.522284 1.641524 0.230747 1.441002 0.932129 0.160537 1.801720 1.164507 0.204338 1.441002 0.932129 0.160537 -1.655938 15.439369 -0.951073 -1.512747 -9.524683 -0.618275 0.913066 1.794207 -0.378476 -10.617007 -2.081045 92.967891 5.703509 8.006525 3.316449 0.981342 -3.863505 -0.202671 -6.688770 0.100547 -0.255634 6.168944 -1.300672 -89.811702 -0.654958 -3.166693 -1.551626 -0.512874 -1.183968 -0.520420 -0.889150 4.872517 0.934333 4.977375 8.839740 0.395744 3.878215 -7.066596 -1.461581 0.031910 -0.055736 0.012683 10.563507 10.705857 -0.765253 -5.166655 0.484301 0.012230 -2.864146 -4.864140 2.509879 -0.027092 0.098594 -0.016642
11.173969 88.979273 0.689705 -177.322268 -6.596677 -0.390779 2.527477 1.623916 0.220520 1.445437 0.922474 0.154141 1.807242 1.152461 0.196316 1.445437 0.922474 0.154141 -1.655337 15.421772 -0.948497 -1.512594 -9.543233 -0.615674 0.904367 1.767747 -0.368749 -10.510846 -2.087182 92.889404 5.587014 8.114590 3.288615 0.925553 -3.841113 -0.163112 -6.693066 0.101807 -0.239411 6.255503 -1.241479 -89.775010 -0.648731 -3.090033 -1.570315 -0.358888 -1.149794 -0.635380 -0.918101 4.859031 0.923527 4.992936 8.839305 0.401068 3.861523 -7.063964 -1.468002 0.029660 -0.050222 0.015008 10.549679 10.698946 -0.781608 -5.174816 0.462480 0.014129 -2.862653 -4.837863 2.513053 -0.026778 0.095475 -0.017180
11.176183 88.979714 0.707906 -177.285901 -6.581709 -0.381736 2.528038 1.603165 0.211004 1.446944 0.910839 0.147892 1.809104 1.137943 0.188462 1.446944 0.910839 0.147892 -1.654393 15.404619 -0.947315 -1.511773 -9.561306 -0.614606 0.894262 1.749457 -0.356322 -10.424025 -2.099127 92.811378 5.459692 8.234291 3.251430 0.867439 -3.817122 -0.127639 -6.697995 0.105980 -0.227949 6.332144 -1.180775 -89.738714 -0.636193 -3.032135 -1.585365 -0.233860 -1.118186 -0.743535 -0.945050 4.838749 0.915245 5.007767 8.834705 0.401215 3.840713 -7.059591 -1.471200 0.027539 -0.044019 0.017348 10.519356 10.675500 -0.799515 -5.184164 0.450832 0.012203 -2.861053 -4.813666 2.518300 -0.025941 0.093147 -0.017661
11.179443 88.980374 0.728169 -177.236504 -6.563417 -0.375776 2.524174 1.581861 0.203662 1.445495 0.898941 0.142862 1.807275 1.123090 0.182124 1.445495 0.898941 0.142862 -1.654175 15.386170 -0.949146 -1.511033 -9.580707 -0.616518 0.887574 1.737218 -0.346977 -10.362345 -2.115537 92.740794 5.324082 8.354814 3.203485 0.806443 -3.792107 -0.091943 -6.700259 0.110202 -0.222712 6.392713 -1.119643 -89.703900 -0.618392 -2.993510 -1.593305 -0.133390 -1.094701 -0.839944 -0.966485 4.816867 0.912407 5.017199 8.825992 0.397196 3.815453 -7.052966 -1.471579 0.025582 -0.038317 0.019056 10.475308 10.638807 -0.816237 -5.194378 0.453195 0.008748 -2.860356 -4.795321 2.525922 -0.024967 0.092057 -0.019290
11.183573 88.981337 0.749104 -177.178135 -6.547521 -0.373413 2.517508 1.563190 0.198832 1.442143 0.888623 0.139401 1.803071 1.110209 0.177749 1.442143 0.888623 0.139401 -1.655139 15.364575 -0.954034 -1.510833 -9.603370 -0.621349 0.884671 1.724753 -0.342943 -10.326738 -2.130207 92.683387 5.182781 8.467365 3.142979 0.744580 -3.767416 -0.059623 -6.699320 0.112349 -0.221100 6.430636 -1.060960 -89.675202 -0.590850 -2.980091 -1.590679 -0.053795 -1.080010 -0.918304 -0.981886 4.800182 0.916157 5.017856 8.812553 0.389331 3.785537 -7.044189 -1.469522 0.023500 -0.033459 0.019603 10.423612 10.597674 -0.830529 -5.204954 0.465747 0.005771 -2.860232 -4.781861 2.535508 -0.023565 0.091574 -0.022117
11.188281 88.982587 0.770085 -177.115852 -6.536086 -0.374505 2.510355 1.547224 0.195404 1.438475 0.879875 0.137135 1.798475 1.099284 0.174873 1.438475 0.879875 0.137135 -1.657767 15.341137 -0.959978 -1.512131 -9.627928 -0.626907 0.879925 1.710588 -0.340826 -10.311714 -2.137201 92.641216 5.037766 8.565324 3.071112 0.686791 -3.750796 -0.037865 -6.696231 0.113558 -0.218376 6.443818 -1.004233 -89.656161 -0.549736 -2.997777 -1.577124 0.010775 -1.070026 -0.974510 -0.992308 4.790866 0.926127 5.007659 8.794360 0.378186 3.754663 -7.033169 -1.466046 0.021054 -0.029544 0.019176 10.369566 10.555924 -0.840819 -5.215721 0.486373 0.001602 -2.860468 -4.772556 2.548939 -0.022106 0.091170 -0.026573
11.193481 88.984094 0.790638 -177.050800 -6.530992 -0.380385 2.503380 1.533438 0.193120 1.434841 0.872312 0.136070 1.793926 1.089836 0.173503 1.434841 0.872312 0.136070 -1.662689 15.318380 -0.965367 -1.515963 -9.651727 -0.631375 0.874032 1.695458 -0.339706 -10.316681 -2.131061 92.614638 4.893274 8.639848 2.991076 0.635194 -3.744308 -0.025425 -6.691524 0.115853 -0.212013 6.438690 -0.947652 -89.649292 -0.500219 -3.042705 -1.553854 0.072218 -1.062820 -1.010423 -1.000214 4.790795 0.942794 4.988209 8.771650 0.363683 3.727091 -7.019474 -1.461411 0.019063 -0.027123 0.018325 10.313886 10.514493 -0.845583 -5.228362 0.517371 -0.003003 -2.859992 -4.768913 2.566218 -0.021299 0.090888 -0.032804
